HIERARCHY
ROOT pelvis
{
  OFFSET 0 100 0
  CHANNELS 6 Xposition Yposition Zposition Zrotation Xrotation Yrotation
  JOINT pelvis_right_femur
  {
    OFFSET -10.78128 -3.44521 -0.5502486
    CHANNELS 3 Zrotation Xrotation Yrotation
    JOINT right_femur_tibia
    {
      OFFSET -0.8047443 -44.0398 -0.1307829
      CHANNELS 3 Zrotation Xrotation Yrotation
      JOINT right_tibia_foot
      {
        OFFSET 3.006224 -47.83518 -5
        CHANNELS 3 Zrotation Xrotation Yrotation
        End Site
        {
          OFFSET 0 -5 15
        }
      }
    }
  }
  JOINT pelvis_left_femur
  {
    OFFSET 10.78128 -3.44521 -0.5502486
    CHANNELS 3 Zrotation Xrotation Yrotation
    JOINT left_femur_tibia
    {
      OFFSET 0.8047443 -44.0398 -0.1307829
      CHANNELS 3 Zrotation Xrotation Yrotation
      JOINT left_tibia_foot
      {
        OFFSET -4.370144 -48.10324 -4.275266
        CHANNELS 3 Zrotation Xrotation Yrotation
        End Site
        {
          OFFSET 0 -5 15
        }
      }
    }
  }
  JOINT pelvis_spine1
  {
    OFFSET 0 6.468898 -3.129235
    CHANNELS 3 Zrotation Xrotation Yrotation
    JOINT spine1
    {
      OFFSET 0 23.15396 4.99043
      CHANNELS 3 Zrotation Xrotation Yrotation
      JOINT spine2
      {
        OFFSET 0 20.79997 -5.064912
        CHANNELS 3 Zrotation Xrotation Yrotation
        JOINT neck
        {
          OFFSET 0 14.38658 9.616178
          CHANNELS 3 Zrotation Xrotation Yrotation
          End Site
          {
            OFFSET 0 20 0
          }
        }
      }
      JOINT right_manubrium
      {
        OFFSET -5.722621 16.35077 3.967754
        CHANNELS 3 Zrotation Xrotation Yrotation
        JOINT right_clavicle
        {
          OFFSET -13.16364 1.694482 -4.693211
          CHANNELS 3 Zrotation Xrotation Yrotation
          JOINT right_humerus
          {
            OFFSET -28.5034 -0.3100689 -2.792744
            CHANNELS 3 Zrotation Xrotation Yrotation
            JOINT right_radius
            {
              OFFSET -25.15693 0.02248979 -1.271978
              CHANNELS 3 Zrotation Xrotation Yrotation
              End Site
              {
                OFFSET -15 0 0
              }
            }
          }
        }
      }
      JOINT left_manubrium
      {
        OFFSET 5.722621 16.35077 3.967754
        CHANNELS 3 Zrotation Xrotation Yrotation
        JOINT left_clavicle
        {
          OFFSET 13.16364 1.694482 -4.693211
          CHANNELS 3 Zrotation Xrotation Yrotation
          JOINT left_humerus
          {
            OFFSET 29.39168 -1.063119 -2.237045
            CHANNELS 3 Zrotation Xrotation Yrotation
            JOINT left_radius
            {
              OFFSET 24.59957 -0.9528479 0.9047498
              CHANNELS 3 Zrotation Xrotation Yrotation
              End Site
              {
                OFFSET 15 -0 -0
              }
            }
          }
        }
      }
    }
  }
}
MOTION
Frames: 9
Frame Time: 0.0416666666667
0 103.5113 0 1.264038 -1.646044 0.08387796 3.024763 -16.09626 8.203509 -0 36.63992 -0 -5.335014 -15.61604 -3.971028 -7.04764 11.93498 -23.09962 -0 4.896676 -0 7.051678 -17.82161 25.52671 -3.139206 -3.776632 4.033557 3.194708 7.44573 -9.071996 0.4953507 19.61915 9.016176 4.182037 -25.97465 9.775559 6.41722 -18.40924 12.54436 82.35909 32.58247 -16.22588 -0 0 20.28048 -9.989172 10.86702 5.620387 9.372619 -20.95347 5.784046 -94.3469 18.10507 21.81864 0 0 -7.720044 12.23284 19.70986 -3.559903
0.2488281 103.3443 1.589885 0.9028118 -0.5803469 0.1413681 3.69191 -19.57476 8.533952 -0 35.78206 -0 -5.173963 -14.81999 -3.993431 -6.901896 12.35917 -23.01596 -0 5.163362 -0 6.066632 -19.54963 25.13811 -3.086025 -3.658061 3.788951 3.358687 7.408859 -9.265199 0.4492408 19.44911 9.194224 4.296729 -26.21234 9.8131 6.345663 -18.28103 12.636 82.75219 32.54125 -16.67705 -0 0 19.72613 -10.14962 10.88465 5.809435 9.420686 -21.17859 5.638654 -93.80504 17.89315 20.97974 0 0 -8.830652 12.04585 19.43234 -3.409998
0.4635841 103.0846 3.448426 0.3269047 0.09241203 0.2390937 4.491258 -23.25387 7.840253 -0 33.22522 -0 -5.714322 -12.85727 -3.638034 -6.503312 12.99872 -22.17824 -0 5.786867 -0 4.736704 -21.36011 24.05924 -2.818769 -3.107096 3.924595 3.259033 7.980725 -9.090798 0.3377731 19.4046 9.367619 4.657895 -26.28521 9.643391 5.912401 -18.27543 12.86936 84.19229 33.34224 -17.73313 -0 0 17.8995 -11.56801 11.03121 6.781908 9.072441 -21.74977 4.086083 -92.64699 18.22054 19.65212 0 0 -12.58916 11.5803 16.88935 -2.548007
0.6725005 102.7525 5.613615 -0.1719189 1.14438 0.3797348 5.332041 -26.97016 7.557916 -0 30.19489 -0 -5.817453 -11.24868 -3.279555 -6.216502 13.3554 -21.30383 -0 6.145192 -0 4.345302 -22.58598 23.20666 -2.71887 -2.857677 3.797805 3.36446 8.124619 -9.1492 0.3226336 19.3274 9.507094 4.795547 -26.55637 9.722561 5.742281 -18.17971 12.90838 84.89173 33.64572 -18.4002 -0 0 16.84413 -11.73987 10.96088 6.961362 8.972707 -22.03907 3.462245 -91.89233 18.33948 18.52656 0 0 -14.58905 11.62363 15.85636 -2.435789
0.8867564 102.3239 8.193878 -0.6594586 2.306867 0.5849879 6.191707 -30.60322 7.243941 -0 26.47671 -0 -5.862121 -9.426153 -2.829221 -5.950688 13.68847 -20.21343 -0 6.653886 -0 4.270435 -23.44417 22.22493 -2.623103 -2.59687 3.713121 3.46585 8.296361 -9.152946 0.346785 19.30608 9.58373 4.879114 -26.86012 9.856651 5.588594 -18.10671 12.87462 85.55759 34.07528 -19.04022 -0 0 15.72217 -11.64812 10.81298 6.984284 8.817483 -22.26747 2.753667 -91.15068 18.60881 17.41116 0 0 -16.6163 11.90616 14.72046 -2.482834
1.1092 101.8014 11.27185 -1.112954 3.469741 0.8767772 7.003501 -33.73812 6.965616 -0 22.65424 -0 -5.88563 -7.524416 -2.368302 -5.708131 14.02982 -19.05125 -0 7.51346 -0 4.1964 -23.86377 21.0639 -2.545787 -2.384864 3.57918 3.602721 8.392449 -9.199548 0.3790344 19.25918 9.648961 4.927324 -27.16553 10.0035 5.473174 -18.01298 12.82225 86.10762 34.42095 -19.62043 -0 0 14.73092 -11.41096 10.67068 6.93878 8.702839 -22.4528 2.188511 -90.44888 18.79481 16.3423 0 0 -18.4158 12.21265 13.82228 -2.592836
1.335598 101.2055 14.93207 -1.557133 4.479783 1.273239 7.738534 -36.06937 6.644462 -0 19.06159 -0 -6.013645 -5.567966 -1.923975 -5.441494 14.42159 -17.83727 -0 9.083841 -0 3.756705 -23.74695 19.54315 -2.465992 -2.182439 3.459882 3.732425 8.491863 -9.229929 0.4225277 19.2205 9.667877 4.938943 -27.43036 10.13574 5.371123 -17.92287 12.74499 86.61682 34.77465 -20.1685 -0 0 13.77297 -11.11643 10.54122 6.874301 8.569526 -22.5988 1.616485 -89.76697 18.98933 15.35472 0 0 -20.14563 12.54385 12.94364 -2.697447
1.559634 100.5914 19.22602 -2.004574 5.175472 1.774221 8.366834 -37.21199 6.27933 -0 16.20295 -0 -6.312204 -3.785957 -1.559366 -5.109115 14.79892 -16.6464 -0 11.74512 -0 2.648968 -22.93113 17.56872 -2.382648 -1.996121 3.350904 3.843298 8.59569 -9.256777 0.4625945 19.1771 9.652056 4.929381 -27.61009 10.21722 5.277148 -17.82334 12.66569 87.09668 35.08105 -20.69372 -0 0 12.87769 -10.89654 10.46842 6.859674 8.434227 -22.72577 1.061343 -89.10868 19.14297 14.46928 0 0 -21.76364 12.79321 12.11778 -2.713066
1.778699 100.0593 24.1613 -2.450695 5.387268 2.344385 8.863182 -36.79278 5.853148 -0 14.46222 -0 -6.828684 -2.460572 -1.324383 -4.677852 14.9808 -15.51089 -0 15.96622 -0 0.7806714 -21.18808 15.16158 -2.293599 -1.824347 3.279691 3.91078 8.733315 -9.261522 0.4983754 19.14709 9.583319 4.893705 -27.66351 10.22417 5.192802 -17.71958 12.58365 87.54842 35.33709 -21.18438 -0 0 12.05687 -10.80913 10.46651 6.912647 8.282792 -22.82948 0.5034944 -88.50618 19.2793 13.75291 0 0 -23.1968 12.92998 11.3326 -2.595517
